<svg width="28" height="25" viewBox="0 0 28 25" fill="none" xmlns="http://www.w3.org/2000/svg">
<path d="M14.4577 24.9167C6.99101 24.9167 0.916016 19.3277 0.916016 12.4583C0.916016 5.58901 6.99101 0 14.4577 0C21.9243 0 27.9993 5.58901 27.9993 12.4583C27.9993 19.3277 21.9243 24.9167 14.4577 24.9167ZM14.4577 1.91667C8.13893 1.91667 2.99935 6.64509 2.99935 12.4583C2.99935 18.2716 8.13893 23 14.4577 23C20.7764 23 25.916 18.2716 25.916 12.4583C25.916 6.64509 20.7764 1.91667 14.4577 1.91667Z" fill="black"/>
<path d="M14.4577 19.1667C13.8827 19.1667 13.416 18.7373 13.416 18.2083V6.70833C13.416 6.17933 13.8827 5.75 14.4577 5.75C15.0327 5.75 15.4994 6.17933 15.4994 6.70833V18.2083C15.4994 18.7373 15.0327 19.1667 14.4577 19.1667Z" fill="black"/>
<path d="M20.7077 13.4167H8.20768C7.63268 13.4167 7.16602 12.9873 7.16602 12.4583C7.16602 11.9293 7.63268 11.5 8.20768 11.5H20.7077C21.2827 11.5 21.7493 11.9293 21.7493 12.4583C21.7493 12.9873 21.2827 13.4167 20.7077 13.4167Z" fill="black"/>
</svg>
