<svg width="30" height="29" viewBox="0 0 30 29" fill="none" xmlns="http://www.w3.org/2000/svg">
<path d="M29.5307 4.57218C29.1283 4.01208 28.5302 3.69091 27.8899 3.69091H5.02362L4.81942 2.04476C4.67481 0.879095 3.77669 0 2.73027 0H0.937493C0.419763 0 0 0.472173 0 1.05455C0 1.63692 0.419763 2.10909 0.937493 2.10909H2.73027C2.84652 2.10909 2.94637 2.20677 2.96236 2.33628L5.49295 22.7371C5.63756 23.9028 6.53568 24.7818 7.58209 24.7818H8.59863C8.49457 25.1119 8.43738 25.4667 8.43738 25.8364C8.43738 27.5808 9.69907 29 11.2499 29C12.8007 29 14.0623 27.5808 14.0623 25.8364C14.0623 25.4667 14.0052 25.1119 13.9011 24.7818H18.9111C18.807 25.1119 18.7498 25.4667 18.7498 25.8364C18.7498 27.5808 20.0115 29 21.5623 29C23.1131 29 24.3748 27.5808 24.3748 25.8364C24.3748 25.4667 24.3176 25.1119 24.2135 24.7818H26.2498C26.7675 24.7818 27.1873 24.3096 27.1873 23.7273C27.1873 23.1449 26.7675 22.6727 26.2498 22.6727H7.58215C7.4659 22.6727 7.36606 22.575 7.35006 22.4455L7.11663 20.5636H25.5795C26.5673 20.5636 27.4347 19.775 27.6423 18.688L29.9526 6.56092C30.0868 5.85695 29.933 5.13208 29.5307 4.57218ZM12.1874 25.8364C12.1874 26.4178 11.7668 26.8909 11.2499 26.8909C10.733 26.8909 10.3124 26.4178 10.3124 25.8364C10.3124 25.2549 10.733 24.7818 11.2499 24.7818C11.7668 24.7818 12.1874 25.2548 12.1874 25.8364ZM22.4998 25.8364C22.4998 26.4178 22.0793 26.8909 21.5623 26.8909C21.0454 26.8909 20.6249 26.4178 20.6249 25.8364C20.6249 25.2549 21.0454 24.7818 21.5623 24.7818C22.0793 24.7818 22.4998 25.2548 22.4998 25.8364ZM28.1192 6.1188L25.809 18.2456C25.7859 18.3666 25.6894 18.4545 25.5795 18.4545H6.85495L5.28524 5.79993H27.8898C27.9826 5.79993 28.0404 5.85319 28.0725 5.89787C28.1045 5.9425 28.1386 6.01704 28.1192 6.1188Z" fill="black"/>
</svg>
