<svg width="46" height="43" viewBox="0 0 46 43" fill="none" xmlns="http://www.w3.org/2000/svg">
<path d="M40.6255 29.5833H13.5422C13.0463 29.5833 12.6193 29.2613 12.5213 28.8128L8.35467 9.64617C8.29217 9.36442 8.37342 9.07308 8.56926 8.85075C8.76717 8.62842 9.06301 8.5 9.37551 8.5H17.7088C18.2838 8.5 18.7505 8.92933 18.7505 9.45833C18.7505 9.98733 18.2838 10.4167 17.7088 10.4167H10.6463L14.3963 27.6667H39.7713L40.3484 25.0121C40.4609 24.4927 41.0088 24.1534 41.5734 24.2607C42.138 24.3642 42.5026 24.8683 42.3901 25.3877L41.6463 28.8128C41.5484 29.2613 41.1213 29.5833 40.6255 29.5833Z" fill="black"/>
<path d="M13.5417 29.5833C13.0563 29.5833 12.6208 29.269 12.5208 28.8128L7.35625 5.05765C7.06458 3.7179 5.775 2.74615 4.29167 2.74615H4.28958L1.04167 2.74998C0.466667 2.74998 0 2.32065 0 1.79165C0 1.26265 0.464583 0.833316 1.04167 0.833316L4.2875 0.829483H4.29167C6.76667 0.829483 8.91458 2.44907 9.4 4.68198L14.5625 28.4371C14.675 28.9566 14.3083 29.4606 13.7458 29.5641C13.6771 29.5776 13.6083 29.5833 13.5417 29.5833Z" fill="black"/>
<path d="M44.7917 33.4167H9.375C7.65208 33.4167 6.25 32.1268 6.25 30.5417C6.25 28.9566 7.65208 27.6667 9.375 27.6667H13.5417C14.1167 27.6667 14.5833 28.096 14.5833 28.625C14.5833 29.154 14.1167 29.5833 13.5417 29.5833H9.375C8.8 29.5833 8.33333 30.0127 8.33333 30.5417C8.33333 31.0707 8.8 31.5 9.375 31.5H44.7917C45.3667 31.5 45.8333 31.9293 45.8333 32.4583C45.8333 32.9873 45.3667 33.4167 44.7917 33.4167Z" fill="black"/>
<path d="M16.6667 43C14.3687 43 12.5 41.2807 12.5 39.1667C12.5 37.0526 14.3687 35.3333 16.6667 35.3333C18.9646 35.3333 20.8333 37.0526 20.8333 39.1667C20.8333 41.2807 18.9646 43 16.6667 43ZM16.6667 37.25C15.5187 37.25 14.5833 38.1106 14.5833 39.1667C14.5833 40.2227 15.5187 41.0833 16.6667 41.0833C17.8146 41.0833 18.75 40.2227 18.75 39.1667C18.75 38.1106 17.8146 37.25 16.6667 37.25Z" fill="black"/>
<path d="M35.4167 43C33.1187 43 31.25 41.2807 31.25 39.1667C31.25 37.0526 33.1187 35.3333 35.4167 35.3333C37.7146 35.3333 39.5833 37.0526 39.5833 39.1667C39.5833 41.2807 37.7146 43 35.4167 43ZM35.4167 37.25C34.2687 37.25 33.3333 38.1106 33.3333 39.1667C33.3333 40.2227 34.2687 41.0833 35.4167 41.0833C36.5646 41.0833 37.5 40.2227 37.5 39.1667C37.5 38.1106 36.5646 37.25 35.4167 37.25Z" fill="black"/>
</svg>
