<svg width="13" height="15" viewBox="0 0 13 15" fill="none" xmlns="http://www.w3.org/2000/svg">
<path d="M12.974 3.83616L12.4231 2.40413C12.278 2.02685 11.8724 1.77337 11.4139 1.77337H8.86648V1.25971C8.86648 0.565107 8.21507 0 7.41441 0H5.92212C5.12145 0 4.47005 0.565107 4.47005 1.25971V1.77337H1.58604C1.12754 1.77337 0.721984 2.02685 0.576838 2.40413L0.026039 3.83616C-0.025495 3.9702 0.000373519 4.11753 0.0955729 4.23217C0.190772 4.34681 0.343719 4.41472 0.506561 4.41472H0.693988L2.00699 14.6094C2.03563 14.8318 2.25243 15 2.51041 15H10.4274C10.6854 15 10.9022 14.8318 10.9308 14.6094L12.2438 4.41472H12.4934C12.6562 4.41472 12.8092 4.34681 12.9044 4.23217C12.9996 4.11756 13.0255 3.97022 12.974 3.83616V3.83616ZM5.48317 1.25971C5.48317 1.04974 5.68008 0.878906 5.92212 0.878906H7.41441C7.65644 0.878906 7.85336 1.04974 7.85336 1.25971V1.77337H5.48317V1.25971ZM9.97429 14.1211H2.96358L1.71346 4.41472H11.2245L9.97429 14.1211ZM1.20963 3.53581L1.53788 2.68233C1.5448 2.66435 1.56416 2.65228 1.58607 2.65228H11.414C11.4358 2.65228 11.4552 2.66435 11.4621 2.68233L11.7904 3.53581H1.20963Z" fill="#B1B1B1"/>
</svg>
