<svg width="32" height="32" viewBox="0 0 32 32" fill="none" xmlns="http://www.w3.org/2000/svg">
<path d="M6.21349 8.99933C5.18778 7.95453 3.50545 7.93536 2.4559 8.95643C1.96396 9.43503 1.67762 10.0849 1.65716 10.7694C0.640615 11.3532 0.291982 12.6469 0.878482 13.6588C1.46498 14.6707 2.76449 15.0178 3.78103 14.434C4.16758 14.212 4.47405 13.8744 4.65713 13.4693C5.08432 13.4136 5.49146 13.2554 5.84361 13.0084C6.92271 13.4677 8.17155 12.9692 8.63294 11.895C9.09433 10.8207 8.59356 9.57756 7.51446 9.11826C7.10414 8.9436 6.64892 8.90202 6.21349 8.99933Z" fill="#02A437"/>
<path d="M5.27847 13.8395C5.05953 13.8396 4.86296 13.7059 4.78341 13.5028L3.81773 11.0395C3.71108 10.7674 3.84622 10.4607 4.11955 10.3546C4.39287 10.2484 4.70093 10.3829 4.80758 10.655L5.77346 13.1183C5.88018 13.3904 5.74517 13.6971 5.47184 13.8033C5.41028 13.8272 5.34474 13.8395 5.27867 13.8395H5.27847Z" fill="#027E2A"/>
<path d="M6.27014 13.4549C6.25387 13.4549 6.23747 13.4541 6.22094 13.4527C5.92875 13.426 5.71366 13.1685 5.74055 12.8776V12.8776C5.82336 11.9997 6.18813 11.1717 6.78081 10.5165C6.97578 10.2982 7.31153 10.2785 7.5308 10.4726C7.75007 10.6667 7.7698 11.0009 7.57483 11.2192C7.5729 11.2214 7.57091 11.2236 7.56892 11.2258C7.13004 11.7111 6.85996 12.3242 6.7986 12.9743C6.77357 13.2463 6.54453 13.4546 6.27014 13.4549Z" fill="#027E2A"/>
<path d="M4.28858 14.2242C4.15697 14.2244 4.03 14.1757 3.93245 14.0877C3.44503 13.6508 2.82911 13.3819 2.17607 13.3208C1.88388 13.2941 1.66879 13.0366 1.69562 12.7458C1.72245 12.4549 1.9811 12.2408 2.27329 12.2675C3.15496 12.35 3.98657 12.713 4.64479 13.3028C4.8626 13.4985 4.8798 13.8329 4.68324 14.0497C4.58243 14.1609 4.43906 14.2243 4.28858 14.2242Z" fill="#027E2A"/>
<path d="M11.5076 23.3798L7.54835 24.9181L3.73244 17.3035C3.01492 15.8714 3.59943 14.1314 5.03812 13.4171C5.11675 13.378 5.19717 13.3426 5.27898 13.3107C6.77657 12.7289 8.46442 13.4658 9.04893 14.9567C9.08093 15.0384 9.10916 15.1213 9.13359 15.2055L11.5076 23.3798Z" fill="#FD9226"/>
<path d="M17.0625 0.586548H19.1875V15.3942H17.0625V0.586548Z" fill="#026A23"/>
<path d="M18.0659 11.2917C18.0154 10.9737 17.9313 10.6619 17.8149 10.3616L15.4687 4.28845L13.875 4.8173L16.1507 10.7073C16.4024 11.3585 16.5314 12.0503 16.5312 12.748V14.6248L18.0659 11.2917Z" fill="#027226"/>
<path d="M20.4041 20.5339C20.9426 21.2489 20.9426 22.2319 20.4041 22.9468L20.3968 22.9567C19.9704 23.5227 19.3012 23.8558 18.5905 23.8558H17.6608C16.9502 23.8558 16.281 23.5227 15.8546 22.9567L15.8473 22.9468C15.3087 22.2319 15.3087 21.2489 15.8473 20.5339L16.5319 19.625V14.6248L18.0666 11.2917L18.1257 11.1635L20.7819 4.28845L22.3757 4.8173L20.0999 10.7073C19.8483 11.3585 19.7193 12.0503 19.7194 12.748V19.625L20.4041 20.5339Z" fill="#027E2A"/>
<path d="M20.4041 22.9468L20.3968 22.9568C20.1734 23.2536 19.8795 23.4905 19.5415 23.6462L16.3652 23.4486C16.1698 23.3128 15.9974 23.1468 15.8546 22.9568L15.8473 22.9468C15.3087 22.2319 15.3087 21.2489 15.8473 20.534L15.8944 20.4712L16.5319 20.1539L19.7194 12.748V19.625L20.4041 20.534C20.9426 21.2489 20.9426 22.2319 20.4041 22.9468Z" fill="#027E2A"/>
<path d="M4.35027 18.7422C4.05689 18.7426 3.81869 18.5061 3.81836 18.214C3.81809 17.9957 3.95263 17.7996 4.15703 17.7205L5.14682 17.336C5.42015 17.2298 5.72821 17.3643 5.83492 17.6364C5.94164 17.9085 5.8065 18.2151 5.5331 18.3214L4.54365 18.7059C4.48202 18.7299 4.41642 18.7422 4.35027 18.7422Z" fill="#E78244"/>
<path d="M7.31896 17.5886C7.02557 17.5889 6.78744 17.3524 6.78711 17.0603C6.78684 16.8421 6.92132 16.6461 7.12565 16.5669L8.1155 16.1824C8.38883 16.0763 8.69688 16.2108 8.80353 16.4829C8.91018 16.755 8.77504 17.0616 8.50172 17.1678L7.51227 17.5523C7.45064 17.5763 7.3851 17.5886 7.31896 17.5886Z" fill="#E78244"/>
<path d="M5.20379 20.6648C4.91041 20.6652 4.67221 20.4287 4.67188 20.1366C4.67161 19.9182 4.80615 19.7222 5.01055 19.643L6.41371 19.1142C6.68704 19.008 6.99516 19.1426 7.10181 19.4146C7.20846 19.6867 7.07332 19.9935 6.79999 20.0996L5.39677 20.6285C5.33527 20.6524 5.2698 20.6647 5.20379 20.6648Z" fill="#E78244"/>
<path d="M8.58647 19.3672C8.29309 19.3675 8.05502 19.131 8.05469 18.8389C8.05449 18.6207 8.18896 18.4248 8.39323 18.3456L8.88815 18.1533C9.16148 18.0471 9.46954 18.1816 9.57619 18.4538C9.68283 18.7259 9.5477 19.0325 9.2743 19.1388L8.77938 19.331C8.71795 19.3549 8.65248 19.3672 8.58647 19.3672Z" fill="#E78244"/>
<path d="M11.5508 12.2212H12.8116C13.6669 12.2212 14.4489 12.7024 14.8313 13.464L15.2695 14.3366H14.0087C13.1535 14.3366 12.3717 13.8556 11.9893 13.0941L11.5508 12.2212Z" fill="#02A437"/>
<path d="M14.1172 17.3775C13.8238 17.3775 13.5859 17.1407 13.5859 16.8486C13.5899 15.0605 14.857 13.5218 16.6177 13.1673L16.6693 13.157C16.9571 13.0997 17.2369 13.2855 17.2944 13.5719C17.3519 13.8583 17.1653 14.1369 16.8776 14.1942L16.826 14.2044C15.5613 14.4591 14.6512 15.5643 14.6484 16.8486C14.6484 17.1407 14.4106 17.3775 14.1172 17.3775Z" fill="#8F6934"/>
<path d="M20.4041 22.9468L20.3968 22.9568C20.1734 23.2536 19.8795 23.4905 19.5415 23.6462L16.3652 23.4486C16.1698 23.3128 15.9974 23.1468 15.8546 22.9568L15.8473 22.9468C15.3087 22.2319 15.3087 21.2489 15.8473 20.534L15.8944 20.4712L16.5319 20.1539L19.7194 12.748V19.625L20.4041 20.534C20.9426 21.2489 20.9426 22.2319 20.4041 22.9468Z" fill="#CBCBCB"/>
<path d="M12.2159 15.7909C12.7405 15.7909 13.2304 16.0519 13.5214 16.4864C13.7411 16.8145 14.1864 16.9031 14.516 16.6844C14.5947 16.6321 14.6623 16.5648 14.7149 16.4864C15.0058 16.0519 15.4957 15.7909 16.0203 15.7909C16.4969 15.7909 16.9476 16.0065 17.2454 16.3771L17.3702 16.5323C18.2862 17.6721 18.3792 19.2636 17.602 20.5015L16.5654 22.1526C16.3649 22.4719 16.0133 22.6659 15.635 22.6659C15.3441 22.6659 15.065 22.5508 14.8593 22.346C14.45 21.9385 13.7863 21.9385 13.377 22.346C13.1712 22.5508 12.8922 22.6659 12.6012 22.6659C12.223 22.6659 11.8713 22.4719 11.6709 22.1526L10.6343 20.5015C9.8571 19.2636 9.95001 17.6721 10.8661 16.5323L10.9908 16.3771C11.2886 16.0066 11.7393 15.7909 12.2159 15.7909Z" fill="#E82F3E"/>
<path d="M12.5873 20.1539C12.4464 20.1541 12.3112 20.0983 12.2116 19.999C11.7319 19.5225 11.613 18.7936 11.9166 18.1906L12.1119 17.8018C12.2452 17.5416 12.5651 17.4382 12.8265 17.5709C13.085 17.7021 13.1899 18.0155 13.0622 18.2748L12.8669 18.6636C12.7683 18.8595 12.8069 19.0961 12.9627 19.2509C13.1703 19.4573 13.1705 19.7922 12.9631 19.9988C12.8635 20.0981 12.7283 20.1539 12.5873 20.1539Z" fill="#FF6268"/>
<path d="M0.59375 24.9135H31.4063V28.0865H0.59375V24.9135Z" fill="#EA9D2D"/>
<path d="M3.78125 27.0289H2.71875C2.42537 27.0289 2.1875 26.7921 2.1875 26.5C2.1875 26.208 2.42537 25.9712 2.71875 25.9712H3.78125C4.07463 25.9712 4.3125 26.208 4.3125 26.5C4.3125 26.7921 4.07463 27.0289 3.78125 27.0289Z" fill="#C38325"/>
<path d="M29.2812 27.0289H28.2187C27.9254 27.0289 27.6875 26.7921 27.6875 26.5C27.6875 26.208 27.9254 25.9712 28.2187 25.9712H29.2812C29.5746 25.9712 29.8125 26.208 29.8125 26.5C29.8125 26.7921 29.5746 27.0289 29.2812 27.0289Z" fill="#C38325"/>
<path d="M0.59375 28.0865H31.4063V31.2596H0.59375V28.0865Z" fill="#FBB540"/>
<path d="M3.78125 30.202H2.71875C2.42537 30.202 2.1875 29.9652 2.1875 29.6731C2.1875 29.3811 2.42537 29.1443 2.71875 29.1443H3.78125C4.07463 29.1443 4.3125 29.3811 4.3125 29.6731C4.3125 29.9652 4.07463 30.202 3.78125 30.202Z" fill="#C38325"/>
<path d="M16.5313 27.0289H15.4688C15.1754 27.0289 14.9375 26.7921 14.9375 26.5C14.9375 26.208 15.1754 25.9712 15.4688 25.9712H16.5313C16.8246 25.9712 17.0625 26.208 17.0625 26.5C17.0625 26.7921 16.8246 27.0289 16.5313 27.0289Z" fill="#C38325"/>
<path d="M16.5313 30.202H15.4688C15.1754 30.202 14.9375 29.9652 14.9375 29.6731C14.9375 29.3811 15.1754 29.1443 15.4688 29.1443H16.5313C16.8246 29.1443 17.0625 29.3811 17.0625 29.6731C17.0625 29.9652 16.8246 30.202 16.5313 30.202Z" fill="#C38325"/>
<path d="M29.2812 30.202H28.2187C27.9254 30.202 27.6875 29.9652 27.6875 29.6731C27.6875 29.3811 27.9254 29.1443 28.2187 29.1443H29.2812C29.5746 29.1443 29.8125 29.3811 29.8125 29.6731C29.8125 29.9652 29.5746 30.202 29.2812 30.202Z" fill="#C38325"/>
<path d="M22.375 18.5673L22.8418 19.032C23.5633 19.7503 23.9688 20.7245 23.9688 21.7404H25.5625V21.2115C25.5625 20.1957 25.1571 19.2214 24.4355 18.5031L23.9688 18.0385L22.375 18.5673Z" fill="#027E2A"/>
<path d="M28.75 18.5673L28.2832 19.032C27.5617 19.7503 27.1562 20.7245 27.1562 21.7404H25.5625V21.2115C25.5625 20.1957 25.9679 19.2214 26.6895 18.5031L27.1562 18.0385L28.75 18.5673Z" fill="#027E2A"/>
<path d="M31.4081 14.4688C31.4086 13.8795 31.1453 13.3206 30.6899 12.9442C30.9446 11.8792 30.2837 10.8103 29.2138 10.5567C29.1057 10.5311 28.9955 10.5146 28.8847 10.5072C27.7876 8.60893 25.3524 7.95535 23.4455 9.04741C22.8358 9.39658 22.3298 9.90024 21.9791 10.5072C20.8817 10.5796 20.051 11.5238 20.1237 12.6162C20.1311 12.7267 20.1477 12.8365 20.1735 12.9442C19.332 13.6405 19.2126 14.8822 19.9061 15.7248C19.2097 17.0101 19.692 18.614 20.9832 19.3072C21.9095 19.8045 23.0433 19.7105 23.8742 19.0675C24.4395 18.994 24.976 18.7761 25.4315 18.4351C25.8871 18.7762 26.4236 18.9941 26.9888 19.0677C28.147 19.964 29.8158 19.756 30.7162 18.6031C31.3623 17.7759 31.4567 16.6469 30.957 15.7248C31.2492 15.3709 31.4087 14.9269 31.4081 14.4688Z" fill="#02A437"/>
<path d="M26.934 12.2211C26.7088 12.2211 26.508 12.0798 26.4331 11.8684C26.2371 11.3174 25.6296 11.0289 25.0761 11.224C24.7738 11.3306 24.5358 11.5674 24.4288 11.8684C24.331 12.1438 24.0275 12.2881 23.7509 12.1908C23.4742 12.0935 23.3292 11.7913 23.427 11.5159C23.8185 10.4142 25.0332 9.83704 26.14 10.2269C26.745 10.4399 27.2208 10.9137 27.4349 11.5159C27.5327 11.7913 27.3878 12.0935 27.1112 12.1909C27.0543 12.2109 26.9943 12.2211 26.934 12.2211Z" fill="#027E2A"/>
<path d="M22.7734 15.9231C21.8932 15.9231 21.1797 15.2128 21.1797 14.3365C21.1797 13.4603 21.8932 12.75 22.7734 12.75C23.0668 12.75 23.3047 12.9868 23.3047 13.2788C23.3047 13.5709 23.0668 13.8077 22.7734 13.8077C22.4801 13.8077 22.2422 14.0445 22.2422 14.3365C22.2422 14.6286 22.4801 14.8654 22.7734 14.8654C23.0668 14.8654 23.3047 15.1022 23.3047 15.3942C23.3047 15.6863 23.0668 15.9231 22.7734 15.9231Z" fill="#027E2A"/>
<path d="M0.59375 21.7405H31.4063V24.9136H0.59375V21.7405Z" fill="#FBB540"/>
<path d="M3.78125 23.8558H2.71875C2.42537 23.8558 2.1875 23.619 2.1875 23.3269C2.1875 23.0349 2.42537 22.7981 2.71875 22.7981H3.78125C4.07463 22.7981 4.3125 23.0349 4.3125 23.3269C4.3125 23.619 4.07463 23.8558 3.78125 23.8558Z" fill="#C38325"/>
<path d="M29.2812 23.8558H28.2187C27.9254 23.8558 27.6875 23.619 27.6875 23.3269C27.6875 23.0349 27.9254 22.7981 28.2187 22.7981H29.2812C29.5746 22.7981 29.8125 23.0349 29.8125 23.3269C29.8125 23.619 29.5746 23.8558 29.2812 23.8558Z" fill="#C38325"/>
<path d="M16.5313 23.8558H15.4688C15.1754 23.8558 14.9375 23.619 14.9375 23.3269C14.9375 23.0349 15.1754 22.7981 15.4688 22.7981H16.5313C16.8246 22.7981 17.0625 23.0349 17.0625 23.3269C17.0625 23.619 16.8246 23.8558 16.5313 23.8558Z" fill="#C38325"/>
<path d="M2.71875 27.0289H3.78125C4.07463 27.0289 4.3125 26.7921 4.3125 26.5C4.3125 26.208 4.07463 25.9712 3.78125 25.9712H2.71875C2.42537 25.9712 2.1875 26.208 2.1875 26.5C2.1875 26.7921 2.42537 27.0289 2.71875 27.0289Z" fill="black"/>
<path d="M28.2187 27.0289H29.2812C29.5746 27.0289 29.8125 26.7921 29.8125 26.5C29.8125 26.208 29.5746 25.9712 29.2812 25.9712H28.2187C27.9254 25.9712 27.6875 26.208 27.6875 26.5C27.6875 26.7921 27.9254 27.0289 28.2187 27.0289Z" fill="black"/>
<path d="M2.71875 30.202H3.78125C4.07463 30.202 4.3125 29.9652 4.3125 29.6731C4.3125 29.3811 4.07463 29.1443 3.78125 29.1443H2.71875C2.42537 29.1443 2.1875 29.3811 2.1875 29.6731C2.1875 29.9652 2.42537 30.202 2.71875 30.202Z" fill="black"/>
<path d="M15.4688 27.0289H16.5313C16.8246 27.0289 17.0625 26.7921 17.0625 26.5C17.0625 26.208 16.8246 25.9712 16.5313 25.9712H15.4688C15.1754 25.9712 14.9375 26.208 14.9375 26.5C14.9375 26.7921 15.1754 27.0289 15.4688 27.0289Z" fill="black"/>
<path d="M15.4688 30.202H16.5313C16.8246 30.202 17.0625 29.9652 17.0625 29.6731C17.0625 29.3811 16.8246 29.1443 16.5313 29.1443H15.4688C15.1754 29.1443 14.9375 29.3811 14.9375 29.6731C14.9375 29.9652 15.1754 30.202 15.4688 30.202Z" fill="black"/>
<path d="M28.2187 30.202H29.2812C29.5746 30.202 29.8125 29.9652 29.8125 29.6731C29.8125 29.3811 29.5746 29.1443 29.2812 29.1443H28.2187C27.9254 29.1443 27.6875 29.3811 27.6875 29.6731C27.6875 29.9652 27.9254 30.202 28.2187 30.202Z" fill="black"/>
<path d="M8.80329 16.4829C8.69664 16.2108 8.38865 16.0763 8.11525 16.1824L7.1254 16.5669C6.85208 16.6731 6.71694 16.9798 6.82359 17.2519C6.93024 17.524 7.23836 17.6585 7.51169 17.5523L8.50147 17.1678C8.7748 17.0616 8.90994 16.755 8.80329 16.4829Z" fill="black"/>
<path d="M31.2588 12.7548C31.4013 11.4453 30.5028 10.2487 29.2007 10.0142C27.8305 7.94092 25.0314 7.366 22.9487 8.73002C22.4354 9.06624 21.9964 9.5032 21.6587 10.0142C21.3599 10.0681 21.0735 10.1758 20.8135 10.332L22.8709 5.00721C22.9762 4.73459 22.8396 4.42859 22.5658 4.32374C22.5583 4.32083 22.5506 4.31812 22.543 4.31561L20.9493 3.78677C20.6797 3.69719 20.3871 3.83463 20.2852 4.09865L19.7188 5.56528V0.586585C19.7188 0.29453 19.4809 0.0577393 19.1875 0.0577393H17.0625C16.7691 0.0577393 16.5313 0.29453 16.5313 0.586585V5.56554L15.9646 4.09872C15.8627 3.83469 15.5701 3.69719 15.3005 3.78677L13.7068 4.31561C13.4284 4.40796 13.278 4.70742 13.3708 4.98454C13.3733 4.99214 13.376 4.99974 13.3789 5.00721L15.6548 10.8972C15.8835 11.4878 16.0005 12.1153 16.0001 12.7482V13.3457C15.8232 13.4132 15.6517 13.4939 15.487 13.5871L15.3063 13.2273C14.8367 12.2841 13.8692 11.6888 12.8116 11.6924H11.5508C11.2574 11.6924 11.0195 11.9291 11.0195 12.2212C11.0195 12.3033 11.0387 12.3843 11.0756 12.4577L11.5139 13.3303C11.9836 14.2737 12.9511 14.869 14.0087 14.8654H14.152C13.9548 15.1819 13.8061 15.526 13.711 15.8862C12.8973 15.0633 11.5675 15.0527 10.7408 15.8627C10.6817 15.9207 10.6259 15.9821 10.5741 16.0467L10.4494 16.202C10.3264 16.3552 10.215 16.5173 10.1162 16.687L9.64326 15.0584C9.41967 14.2925 8.93524 13.6279 8.27317 13.1787C9.22656 12.4659 9.58629 11.2081 9.15299 10.1022C8.71079 8.99094 7.57876 8.30926 6.38471 8.43532C5.04602 7.29632 3.03325 7.45332 1.88907 8.78602C1.48021 9.26218 1.22209 9.84814 1.14711 10.4701C0.183227 11.1827 -0.185727 12.4474 0.244852 13.5631C0.67543 14.6714 1.79796 15.3556 2.98531 15.2335C2.80408 16.0103 2.89997 16.8256 3.25664 17.5396L5.09656 21.2116H0.59375C0.300367 21.2116 0.0625 21.4484 0.0625 21.7404V31.2597C0.0625 31.5517 0.300367 31.7885 0.59375 31.7885H31.4063C31.6996 31.7885 31.9375 31.5517 31.9375 31.2597V21.7404C31.9375 21.4484 31.6996 21.2116 31.4063 21.2116H28.0793C28.1397 20.8389 28.2642 20.4795 28.4473 20.149C28.5036 20.1519 28.5601 20.1539 28.617 20.1539C30.3778 20.1534 31.805 18.7321 31.8045 16.9792C31.8044 16.5673 31.7237 16.1593 31.567 15.7781C32.158 14.8157 32.0319 13.5792 31.2586 12.7548H31.2588ZM25.4715 20.3272C25.3941 19.9537 25.2674 19.5921 25.0947 19.2517C25.2091 19.1974 25.3211 19.1378 25.4297 19.0725C25.5598 19.1503 25.6944 19.2205 25.8328 19.2825C25.6681 19.6139 25.5467 19.9651 25.4715 20.3272ZM24.0672 19.5816C24.3515 20.0781 24.5007 20.64 24.5 21.2116H23.9367C23.8796 20.7488 23.748 20.2981 23.5469 19.877C23.7292 19.795 23.9035 19.6961 24.0672 19.5816ZM22.4926 20.1443C22.6771 20.4761 22.8025 20.8372 22.8632 21.2116H21.2822C21.2055 20.851 21.0506 20.5115 20.8284 20.2168L20.2617 19.4643C20.8242 19.9112 21.5225 20.1544 22.2422 20.1539C22.3263 20.1539 22.4098 20.1507 22.4926 20.1443ZM18.0506 20.7819C18.7222 19.7099 18.8413 18.3837 18.3715 17.2101L19.1066 15.4071C19.1582 15.5356 19.2204 15.6597 19.2925 15.7781C19.0168 16.4481 18.9798 17.1919 19.1875 17.8858V19.625C19.1875 19.7395 19.2248 19.8508 19.2938 19.9424L19.9785 20.8514C20.0614 20.9617 20.1285 21.0829 20.1777 21.2117H17.7804L18.0506 20.7819ZM21.0949 4.95003L21.6796 5.14405L19.6035 10.5175C19.375 11.1086 19.2392 11.7312 19.2008 12.3635L17.6854 16.0803L17.6584 16.0467C17.4935 15.8415 17.2914 15.669 17.0625 15.5383V14.7402L21.0949 4.95003ZM17.5938 8.25486V1.11543H18.6563V8.11101C18.6563 8.16125 18.6636 8.21123 18.6778 8.25942L18.125 9.69067L17.5912 8.30906C17.593 8.29108 17.5938 8.27297 17.5938 8.25486ZM14.5704 5.14405L15.1548 4.95003L17.319 10.5521C17.4029 10.7698 17.4677 10.9945 17.5127 11.2234L17.0412 12.248C16.9939 11.6553 16.861 11.0725 16.6465 10.5175L14.5704 5.14405ZM16 14.6247V15.2626C15.6472 15.2655 15.3008 15.3569 14.993 15.5285C15.2308 15.1063 15.5787 14.7557 16 14.5138V14.6247ZM12.4644 12.8576L12.4103 12.75H12.8116C13.4663 12.7478 14.0652 13.1163 14.3559 13.7002L14.41 13.8077H14.0087C13.354 13.81 12.7551 13.4414 12.4644 12.8576ZM11.279 16.8627L11.4038 16.7075C11.7618 16.262 12.4149 16.1899 12.8623 16.5464C12.9456 16.6127 13.018 16.6914 13.0772 16.7797C13.4596 17.3508 14.2348 17.5052 14.8085 17.1244C14.9456 17.0334 15.0633 16.9162 15.1547 16.7797C15.417 16.3886 15.9114 16.2229 16.3579 16.3765C16.3612 16.3776 16.3645 16.379 16.3678 16.38C16.549 16.4444 16.7085 16.5579 16.8285 16.7075L16.9532 16.8627C17.7272 17.8276 17.8058 19.1736 17.1494 20.2214L16.5278 21.2116H11.7046L11.0829 20.2213C10.4264 19.1736 10.505 17.8276 11.279 16.8627ZM9.58303 18.4757C9.58184 18.4721 9.58077 18.4686 9.57951 18.465L9.5833 18.4693C9.58317 18.4716 9.58317 18.4738 9.58303 18.4759V18.4757ZM1.23464 13.1784C0.952344 12.4484 1.24334 11.6223 1.92188 11.2277C2.08172 11.1361 2.18239 10.9686 2.1879 10.7851C2.22216 9.61703 3.20126 8.69776 4.37459 8.73194C4.9255 8.74794 5.44858 8.9764 5.8336 9.369C5.9625 9.50022 6.15056 9.55555 6.33045 9.5151C7.09811 9.34791 7.87427 9.75942 8.16327 10.4869C8.48487 11.2994 8.08391 12.2177 7.26765 12.5378C7.1515 12.5834 7.03038 12.6152 6.90673 12.6325C6.8882 12.6295 6.86981 12.6259 6.85128 12.6229C6.96317 12.1029 7.21014 11.6213 7.56754 11.226C7.76609 11.0109 7.75201 10.6764 7.53599 10.4787C7.31997 10.2811 6.98396 10.2951 6.78534 10.5101C6.78334 10.5123 6.78135 10.5145 6.77936 10.5167C6.27859 11.0708 5.93886 11.7503 5.79655 12.4821C5.71088 12.4897 5.62834 12.5181 5.55616 12.5647L4.80749 10.655C4.70084 10.3829 4.39279 10.2484 4.11946 10.3546C3.84613 10.4607 3.71099 10.7674 3.81764 11.0395L4.56631 12.9492C4.4815 12.9636 4.40155 12.9984 4.33322 13.0504C3.73058 12.6081 3.01838 12.3375 2.27296 12.2675C1.98078 12.2408 1.72213 12.4549 1.6953 12.7458C1.66847 13.0366 1.88356 13.2941 2.17575 13.3208C2.70759 13.3706 3.21706 13.5585 3.65322 13.8655C3.6414 13.8801 3.63038 13.8953 3.61882 13.9101C2.89659 14.4061 1.90713 14.2253 1.40889 13.5063C1.33816 13.4042 1.27979 13.2943 1.23484 13.1787L1.23464 13.1784ZM5.90147 20.4485L6.79928 20.0997C7.07301 19.9945 7.20921 19.6884 7.10356 19.4159C6.9979 19.1434 6.69038 19.0078 6.41665 19.113C6.41545 19.1135 6.41419 19.1139 6.413 19.1144L5.42527 19.4982L4.949 18.5476L5.53185 18.3212C5.80518 18.215 5.94032 17.9083 5.83367 17.6362C5.72702 17.364 5.41896 17.2296 5.14557 17.3358L4.47274 17.5972L4.20711 17.0674C3.90536 16.4726 3.87236 15.7782 4.1162 15.1577C4.69898 13.7864 6.40622 13.4948 7.39003 13.8862C7.99147 14.1782 8.43958 14.7113 8.62227 15.3522L9.46782 18.2637C9.47114 18.2753 9.47539 18.2863 9.47951 18.2975C9.33228 18.1301 9.09554 18.0724 8.88729 18.1531L8.39237 18.3454C8.11904 18.4515 7.9839 18.7582 8.09055 19.0303C8.1972 19.3024 8.50526 19.4369 8.77859 19.3307L9.27351 19.1385C9.41695 19.0828 9.52898 18.9678 9.58038 18.8233C9.60461 19.5174 9.812 20.1929 10.1816 20.782L10.4514 21.2117H6.2839L5.90147 20.4485ZM30.875 27.5577H1.125V25.4424H30.875V27.5577ZM30.875 30.7308H1.125V28.6154H30.875V30.7308ZM30.875 24.3847H1.125V22.2693H30.875V24.3847ZM27.006 21.2116H26.4427C26.4423 20.6559 26.5833 20.1092 26.8525 19.6224C27.0195 19.7337 27.1967 19.8289 27.3818 19.9067C27.1885 20.3193 27.0616 20.7597 27.006 21.2116ZM30.5444 15.3896C30.4076 15.5556 30.3852 15.7876 30.4879 15.9765C31.0447 17.0053 30.6583 18.2887 29.6248 18.843C29.3152 19.0091 28.9689 19.0961 28.6172 19.0962C28.1446 19.0977 27.6854 18.9407 27.3134 18.6505C27.2387 18.5926 27.1499 18.5556 27.056 18.5434C26.5816 18.4812 26.1314 18.2983 25.7488 18.0123C25.5598 17.871 25.2996 17.871 25.1106 18.0123C24.728 18.2983 24.2777 18.4812 23.8034 18.5434C23.7095 18.5556 23.6207 18.5926 23.5459 18.6505C23.174 18.9407 22.7147 19.0977 22.2422 19.0962C21.0683 19.0959 20.1169 18.1482 20.1172 16.9796C20.1173 16.6295 20.2047 16.2848 20.3715 15.9765C20.4742 15.7876 20.4518 15.5556 20.315 15.3896C19.9277 14.9193 19.8758 14.2586 20.1849 13.7341L20.1862 13.7319C20.2718 13.5871 20.3819 13.4582 20.5116 13.3507C20.6664 13.2223 20.735 13.0177 20.6885 12.8225C20.5015 12.0417 20.9857 11.2577 21.77 11.0715C21.8495 11.0526 21.9305 11.0404 22.012 11.035C22.1891 11.0234 22.3487 10.9245 22.4374 10.7715C23.3878 9.1262 25.4981 8.55947 27.1509 9.50558C27.6797 9.80828 28.1185 10.2451 28.4226 10.7715C28.5112 10.9245 28.6708 11.0234 28.8479 11.035C29.6524 11.0881 30.2613 11.7804 30.208 12.5813C30.2026 12.6626 30.1904 12.7432 30.1714 12.8224C30.1249 13.0176 30.1934 13.2222 30.3483 13.3507C30.6824 13.6267 30.8755 14.0366 30.875 14.4688C30.8764 14.8047 30.7594 15.1306 30.5444 15.3896Z" fill="black"/>
<path d="M25.4309 10.1058C24.5305 10.1067 23.7281 10.6714 23.427 11.5161C23.3292 11.7915 23.4742 12.0937 23.7508 12.191C24.0275 12.2883 24.331 12.144 24.4288 11.8686C24.6248 11.3176 25.2323 11.0291 25.7857 11.2242C26.0881 11.3308 26.326 11.5676 26.4331 11.8686C26.5308 12.144 26.8343 12.2883 27.111 12.191C27.3876 12.0937 27.5326 11.7915 27.4349 11.5161C27.1337 10.6714 26.3313 10.1067 25.4309 10.1058Z" fill="black"/>
<path d="M22.7734 13.8077C23.0668 13.8077 23.3047 13.5709 23.3047 13.2788C23.3047 12.9868 23.0668 12.75 22.7734 12.75C21.8932 12.75 21.1797 13.4603 21.1797 14.3365C21.1797 15.2128 21.8932 15.9231 22.7734 15.9231C23.0668 15.9231 23.3047 15.6863 23.3047 15.3942C23.3047 15.1022 23.0668 14.8654 22.7734 14.8654C22.4801 14.8654 22.2422 14.6286 22.2422 14.3365C22.2422 14.0445 22.4801 13.8077 22.7734 13.8077Z" fill="black"/>
<path d="M3.78125 22.7981H2.71875C2.42537 22.7981 2.1875 23.0349 2.1875 23.3269C2.1875 23.619 2.42537 23.8558 2.71875 23.8558H3.78125C4.07463 23.8558 4.3125 23.619 4.3125 23.3269C4.3125 23.0349 4.07463 22.7981 3.78125 22.7981Z" fill="black"/>
<path d="M28.2187 23.8558H29.2812C29.5746 23.8558 29.8125 23.619 29.8125 23.3269C29.8125 23.0349 29.5746 22.7981 29.2812 22.7981H28.2187C27.9254 22.7981 27.6875 23.0349 27.6875 23.3269C27.6875 23.619 27.9254 23.8558 28.2187 23.8558Z" fill="black"/>
<path d="M16.5313 22.7981H15.4688C15.1754 22.7981 14.9375 23.0349 14.9375 23.3269C14.9375 23.619 15.1754 23.8558 15.4688 23.8558H16.5313C16.8246 23.8558 17.0625 23.619 17.0625 23.3269C17.0625 23.0349 16.8246 22.7981 16.5313 22.7981Z" fill="black"/>
<path d="M12.849 20.6407C13.1424 20.6407 13.3803 20.4039 13.3803 20.1118C13.3803 19.9715 13.3243 19.837 13.2247 19.7379C13.0689 19.5831 13.0303 19.3464 13.1289 19.1506L13.3242 18.7618C13.4533 18.4996 13.3445 18.1827 13.081 18.0541C12.8205 17.9269 12.5056 18.0314 12.3739 18.2887L12.1783 18.6773C11.8748 19.2803 11.9936 20.0091 12.4731 20.4856C12.5726 20.585 12.708 20.6409 12.849 20.6407Z" fill="black"/>
</svg>
